<svg width="800" height="400" viewBox="0 0 800 400" fill="none" xmlns="http://www.w3.org/2000/svg">
  <rect width="800" height="400" fill="url(#gradient6)"/>
  <defs>
    <linearGradient id="gradient6" x1="0%" y1="0%" x2="100%" y2="100%">
      <stop offset="0%" style="stop-color:#1E40AF;stop-opacity:1" />
      <stop offset="100%" style="stop-color:#059669;stop-opacity:1" />
    </linearGradient>
  </defs>
  <rect x="50" y="50" width="700" height="300" rx="20" fill="rgba(255,255,255,0.1)" stroke="rgba(255,255,255,0.2)" stroke-width="2"/>
  <rect x="100" y="100" width="250" height="40" rx="8" fill="rgba(255,255,255,0.2)"/>
  <rect x="100" y="160" width="250" height="120" rx="8" fill="rgba(255,255,255,0.1)"/>
  <rect x="380" y="100" width="270" height="180" rx="8" fill="rgba(255,255,255,0.1)"/>
  <circle cx="150" cy="120" r="12" fill="rgba(16, 185, 129, 0.8)"/>
  <rect x="180" y="110" width="120" height="8" rx="4" fill="rgba(255,255,255,0.6)"/>
  <rect x="180" y="125" width="80" height="6" rx="3" fill="rgba(255,255,255,0.4)"/>
  <rect x="120" y="180" width="60" height="40" rx="6" fill="rgba(59, 130, 246, 0.6)"/>
  <rect x="190" y="180" width="60" height="40" rx="6" fill="rgba(239, 68, 68, 0.6)"/>
  <rect x="260" y="180" width="60" height="40" rx="6" fill="rgba(245, 158, 11, 0.6)"/>
  <rect x="120" y="240" width="100" height="20" rx="4" fill="rgba(255,255,255,0.3)"/>
  <rect x="240" y="240" width="80" height="20" rx="4" fill="rgba(255,255,255,0.3)"/>
  <path d="M420 140 L580 140 M420 170 L600 170 M420 200 L560 200 M420 230 L590 230" stroke="rgba(255,255,255,0.5)" stroke-width="2"/>
  <text x="400" y="320" text-anchor="middle" fill="rgba(255,255,255,0.9)" font-family="Arial, sans-serif" font-size="18" font-weight="bold">Learning Management System</text>
  <text x="400" y="350" text-anchor="middle" fill="rgba(255,255,255,0.7)" font-family="Arial, sans-serif" font-size="14">Learn • Track • Progress</text>
</svg>
