<svg width="800" height="400" viewBox="0 0 800 400" fill="none" xmlns="http://www.w3.org/2000/svg">
  <rect width="800" height="400" fill="url(#gradient3)"/>
  <defs>
    <linearGradient id="gradient3" x1="0%" y1="0%" x2="100%" y2="100%">
      <stop offset="0%" style="stop-color:#0891B2;stop-opacity:1" />
      <stop offset="100%" style="stop-color:#1E40AF;stop-opacity:1" />
    </linearGradient>
  </defs>
  <rect x="50" y="50" width="700" height="300" rx="20" fill="rgba(255,255,255,0.1)" stroke="rgba(255,255,255,0.2)" stroke-width="2"/>
  <circle cx="200" cy="150" r="60" fill="rgba(255,255,255,0.2)" stroke="rgba(255,255,255,0.4)" stroke-width="3"/>
  <circle cx="200" cy="150" r="40" fill="rgba(59, 130, 246, 0.6)"/>
  <circle cx="200" cy="150" r="20" fill="rgba(239, 68, 68, 0.8)"/>
  <rect x="300" y="100" width="200" height="15" rx="7" fill="rgba(255,255,255,0.6)"/>
  <rect x="300" y="130" width="250" height="12" rx="6" fill="rgba(255,255,255,0.5)"/>
  <rect x="300" y="160" width="180" height="12" rx="6" fill="rgba(255,255,255,0.5)"/>
  <rect x="300" y="190" width="220" height="12" rx="6" fill="rgba(255,255,255,0.5)"/>
  <rect x="550" y="100" width="100" height="100" rx="12" fill="rgba(255,255,255,0.15)"/>
  <path d="M580 120 L590 130 L580 140 M590 130 L570 130" stroke="rgba(255,255,255,0.7)" stroke-width="2" fill="none"/>
  <text x="400" y="280" text-anchor="middle" fill="rgba(255,255,255,0.9)" font-family="Arial, sans-serif" font-size="18" font-weight="bold">Weather Dashboard</text>
  <text x="400" y="320" text-anchor="middle" fill="rgba(255,255,255,0.7)" font-family="Arial, sans-serif" font-size="14">Real-time Weather Data & Analytics</text>
</svg>
