<svg width="800" height="400" viewBox="0 0 800 400" fill="none" xmlns="http://www.w3.org/2000/svg">
  <rect width="800" height="400" fill="url(#gradient5)"/>
  <defs>
    <linearGradient id="gradient5" x1="0%" y1="0%" x2="100%" y2="100%">
      <stop offset="0%" style="stop-color:#7C3AED;stop-opacity:1" />
      <stop offset="100%" style="stop-color:#DB2777;stop-opacity:1" />
    </linearGradient>
  </defs>
  <rect x="50" y="50" width="700" height="300" rx="20" fill="rgba(255,255,255,0.1)" stroke="rgba(255,255,255,0.2)" stroke-width="2"/>
  <rect x="100" y="100" width="600" height="80" rx="12" fill="rgba(255,255,255,0.1)"/>
  <circle cx="150" cy="140" r="20" fill="rgba(255,255,255,0.8)"/>
  <rect x="190" y="125" width="200" height="15" rx="7" fill="rgba(255,255,255,0.6)"/>
  <rect x="190" y="150" width="150" height="10" rx="5" fill="rgba(255,255,255,0.4)"/>
  <rect x="500" y="120" width="80" height="40" rx="8" fill="rgba(16, 185, 129, 0.7)"/>
  <rect x="600" y="120" width="80" height="40" rx="8" fill="rgba(59, 130, 246, 0.7)"/>
  <rect x="150" y="200" width="100" height="60" rx="8" fill="rgba(255,255,255,0.15)"/>
  <rect x="280" y="200" width="100" height="60" rx="8" fill="rgba(255,255,255,0.15)"/>
  <rect x="410" y="200" width="100" height="60" rx="8" fill="rgba(255,255,255,0.15)"/>
  <rect x="540" y="200" width="100" height="60" rx="8" fill="rgba(255,255,255,0.15)"/>
  <text x="400" y="290" text-anchor="middle" fill="rgba(255,255,255,0.9)" font-family="Arial, sans-serif" font-size="18" font-weight="bold">Portfolio Website</text>
  <text x="400" y="320" text-anchor="middle" fill="rgba(255,255,255,0.7)" font-family="Arial, sans-serif" font-size="14">Showcase • Skills • Experience</text>
</svg>
